<svg width="86" height="49" viewBox="0 0 86 49" fill="none" xmlns="http://www.w3.org/2000/svg">
<g filter="url(#filter0_d)">
<path d="M16.7669 12.4309H16.7641C14.4353 12.4309 12.5474 14.1624 12.5474 16.2984V16.301C12.5474 18.4369 14.4353 20.1685 16.7641 20.1685H16.7669C19.0957 20.1685 20.9836 18.4369 20.9836 16.301V16.2984C20.9836 14.1624 19.0957 12.4309 16.7669 12.4309Z" fill="#AFB1B8"/>
<path d="M47.8909 11.1946C47.8843 8.22793 46.5967 5.38444 44.3097 3.28643C42.0228 1.18841 38.9228 0.00673632 35.6882 0V0C32.4527 0.00538941 29.3513 1.18647 27.0632 3.28463C24.775 5.38279 23.4866 8.22705 23.48 11.1946V11.1946V27.5544C23.48 27.5544 47.8882 25.0611 47.8909 11.1972V11.1946Z" fill="#AFB1B8"/>
<path d="M4 32.924C4.00587 34.9882 4.90234 36.9664 6.49352 38.4263C8.0847 39.8862 10.2412 40.709 12.4919 40.7151V40.7151C14.742 40.709 16.8981 39.8865 18.4892 38.4272C20.0803 36.9679 20.9771 34.9903 20.9837 32.9265V32.9265V21.5432C20.9837 21.5432 4 23.2794 4 32.924ZM12.4919 34.9635C12.052 34.9635 11.6221 34.8439 11.2564 34.6198C10.8907 34.3957 10.6057 34.0772 10.4374 33.7045C10.2691 33.3318 10.2251 32.9217 10.3109 32.5261C10.3967 32.1304 10.6084 31.767 10.9194 31.4818C11.2304 31.1965 11.6267 31.0023 12.058 30.9236C12.4894 30.8449 12.9365 30.8853 13.3428 31.0397C13.7492 31.194 14.0965 31.4554 14.3408 31.7908C14.5852 32.1262 14.7156 32.5206 14.7156 32.924C14.7167 33.1924 14.66 33.4585 14.5487 33.7068C14.4374 33.9552 14.2738 34.1809 14.0672 34.3711C13.8606 34.5613 13.6151 34.7122 13.3448 34.8152C13.0744 34.9182 12.7846 34.9712 12.4919 34.9712V34.9635Z" fill="#AFB1B8"/>
<path d="M29.7405 33.8306H28.053V35.5737H27.1741V31.3081H29.9514V32.02H28.053V33.1216H29.7405V33.8306ZM33.9651 33.5376C33.9651 33.9575 33.8909 34.3257 33.7424 34.6421C33.594 34.9585 33.3811 35.2026 33.1038 35.3745C32.8284 35.5464 32.512 35.6323 32.1545 35.6323C31.801 35.6323 31.4856 35.5474 31.2083 35.3774C30.9309 35.2075 30.7161 34.9653 30.5637 34.6509C30.4114 34.3345 30.3342 33.9712 30.3323 33.561V33.3501C30.3323 32.9302 30.4075 32.561 30.5579 32.2427C30.7102 31.9224 30.9241 31.6772 31.1995 31.5073C31.4768 31.3354 31.7932 31.2495 32.1487 31.2495C32.5042 31.2495 32.8196 31.3354 33.095 31.5073C33.3723 31.6772 33.5862 31.9224 33.7366 32.2427C33.8889 32.561 33.9651 32.9292 33.9651 33.3472V33.5376ZM33.0745 33.3442C33.0745 32.897 32.9944 32.5571 32.8342 32.3247C32.6741 32.0923 32.4456 31.9761 32.1487 31.9761C31.8538 31.9761 31.6262 32.0913 31.4661 32.3218C31.3059 32.5503 31.2249 32.8862 31.2229 33.3296V33.5376C31.2229 33.9731 31.303 34.311 31.4631 34.5513C31.6233 34.7915 31.8538 34.9116 32.1545 34.9116C32.4495 34.9116 32.676 34.7964 32.8342 34.5659C32.9924 34.3335 33.0725 33.9956 33.0745 33.5522V33.3442ZM36.8157 34.4546C36.8157 34.2886 36.7571 34.1616 36.6399 34.0737C36.5227 33.9839 36.3118 33.8901 36.0071 33.7925C35.7024 33.6929 35.4612 33.5952 35.2834 33.4995C34.7991 33.2378 34.5569 32.8853 34.5569 32.4419C34.5569 32.2114 34.6213 32.0063 34.7502 31.8267C34.8811 31.645 35.0676 31.5034 35.3098 31.4019C35.554 31.3003 35.8274 31.2495 36.1301 31.2495C36.4348 31.2495 36.7063 31.3052 36.9446 31.4165C37.1829 31.5259 37.3674 31.6812 37.4983 31.8823C37.6311 32.0835 37.6975 32.312 37.6975 32.5679H36.8186C36.8186 32.3726 36.7571 32.2212 36.634 32.1138C36.511 32.0044 36.3381 31.9497 36.1155 31.9497C35.9006 31.9497 35.7336 31.9956 35.6145 32.0874C35.4954 32.1772 35.4358 32.2964 35.4358 32.4448C35.4358 32.5835 35.5051 32.6997 35.6438 32.7935C35.7844 32.8872 35.9905 32.9751 36.262 33.0571C36.762 33.2075 37.1262 33.394 37.3547 33.6167C37.5833 33.8394 37.6975 34.1167 37.6975 34.4487C37.6975 34.8179 37.5579 35.1079 37.2786 35.3188C36.9993 35.5278 36.6233 35.6323 36.1506 35.6323C35.8225 35.6323 35.5237 35.5728 35.2542 35.4536C34.9846 35.3325 34.7786 35.1675 34.636 34.9585C34.4954 34.7495 34.425 34.5073 34.425 34.2319H35.3069C35.3069 34.7026 35.5881 34.938 36.1506 34.938C36.3596 34.938 36.5227 34.896 36.6399 34.812C36.7571 34.7261 36.8157 34.6069 36.8157 34.4546ZM41.5061 32.02H40.1995V35.5737H39.3206V32.02H38.0315V31.3081H41.5061V32.02ZM44.5764 33.7251H42.8889V34.8677H44.8694V35.5737H42.01V31.3081H44.8635V32.02H42.8889V33.0366H44.5764V33.7251ZM46.9641 34.0122H46.2639V35.5737H45.385V31.3081H46.97C47.4739 31.3081 47.8625 31.4204 48.136 31.645C48.4094 31.8696 48.5461 32.187 48.5461 32.5972C48.5461 32.8882 48.4827 33.1313 48.3557 33.3267C48.2307 33.52 48.0403 33.6743 47.7844 33.7896L48.7073 35.5327V35.5737H47.7639L46.9641 34.0122ZM46.2639 33.3003H46.9729C47.1936 33.3003 47.3645 33.2446 47.4856 33.1333C47.6067 33.02 47.6672 32.8647 47.6672 32.6675C47.6672 32.4663 47.6096 32.3081 47.4944 32.1929C47.3811 32.0776 47.2063 32.02 46.97 32.02H46.2639V33.3003ZM51.5901 34.0708V35.5737H50.7112V31.3081H52.3752C52.6956 31.3081 52.9768 31.3667 53.219 31.4839C53.4631 31.6011 53.6506 31.7681 53.7815 31.9849C53.9124 32.1997 53.9778 32.4448 53.9778 32.7202C53.9778 33.1382 53.8342 33.4683 53.5471 33.7104C53.262 33.9507 52.8665 34.0708 52.3606 34.0708H51.5901ZM51.5901 33.3589H52.3752C52.6077 33.3589 52.7844 33.3042 52.9055 33.1948C53.0286 33.0854 53.0901 32.9292 53.0901 32.7261C53.0901 32.5171 53.0286 32.3481 52.9055 32.2192C52.7825 32.0903 52.6125 32.0239 52.3958 32.02H51.5901V33.3589ZM57.1506 33.7251H55.4631V34.8677H57.4436V35.5737H54.5842V31.3081H57.4377V32.02H55.4631V33.0366H57.1506V33.7251ZM61.2288 32.02H59.9221V35.5737H59.0432V32.02H57.7542V31.3081H61.2288V32.02ZM64.2991 33.7251H62.6116V34.8677H64.592V35.5737H61.7327V31.3081H64.5862V32.02H62.6116V33.0366H64.2991V33.7251ZM66.6868 34.0122H65.9866V35.5737H65.1077V31.3081H66.6926C67.1965 31.3081 67.5852 31.4204 67.8586 31.645C68.1321 31.8696 68.2688 32.187 68.2688 32.5972C68.2688 32.8882 68.2053 33.1313 68.0784 33.3267C67.9534 33.52 67.7629 33.6743 67.5071 33.7896L68.4299 35.5327V35.5737H67.4866L66.6868 34.0122ZM65.9866 33.3003H66.6956C66.9163 33.3003 67.0872 33.2446 67.2083 33.1333C67.3293 33.02 67.3899 32.8647 67.3899 32.6675C67.3899 32.4663 67.3323 32.3081 67.217 32.1929C67.1038 32.0776 66.929 32.02 66.6926 32.02H65.9866V33.3003ZM71.1516 34.4546C71.1516 34.2886 71.093 34.1616 70.9758 34.0737C70.8586 33.9839 70.6477 33.8901 70.343 33.7925C70.0383 33.6929 69.7971 33.5952 69.6194 33.4995C69.135 33.2378 68.8928 32.8853 68.8928 32.4419C68.8928 32.2114 68.9573 32.0063 69.0862 31.8267C69.217 31.645 69.4036 31.5034 69.6458 31.4019C69.8899 31.3003 70.1633 31.2495 70.4661 31.2495C70.7708 31.2495 71.0422 31.3052 71.2805 31.4165C71.5188 31.5259 71.7034 31.6812 71.8342 31.8823C71.967 32.0835 72.0334 32.312 72.0334 32.5679H71.1545C71.1545 32.3726 71.093 32.2212 70.97 32.1138C70.8469 32.0044 70.6741 31.9497 70.4514 31.9497C70.2366 31.9497 70.0696 31.9956 69.9504 32.0874C69.8313 32.1772 69.7717 32.2964 69.7717 32.4448C69.7717 32.5835 69.8411 32.6997 69.9797 32.7935C70.1204 32.8872 70.3264 32.9751 70.5979 33.0571C71.0979 33.2075 71.4622 33.394 71.6907 33.6167C71.9192 33.8394 72.0334 34.1167 72.0334 34.4487C72.0334 34.8179 71.8938 35.1079 71.6145 35.3188C71.3352 35.5278 70.9592 35.6323 70.4866 35.6323C70.1584 35.6323 69.8596 35.5728 69.5901 35.4536C69.3206 35.3325 69.1145 35.1675 68.9719 34.9585C68.8313 34.7495 68.761 34.5073 68.761 34.2319H69.6428C69.6428 34.7026 69.9241 34.938 70.4866 34.938C70.6956 34.938 70.8586 34.896 70.9758 34.812C71.093 34.7261 71.1516 34.6069 71.1516 34.4546Z" fill="#AFB1B8"/>
</g>
<defs>
<filter id="filter0_d" x="0" y="0" width="76.0334" height="48.7151" filterUnits="userSpaceOnUse" color-interpolation-filters="sRGB">
<feFlood flood-opacity="0" result="BackgroundImageFix"/>
<feColorMatrix in="SourceAlpha" type="matrix" values="0 0 0 0 0 0 0 0 0 0 0 0 0 0 0 0 0 0 127 0"/>
<feOffset dy="4"/>
<feGaussianBlur stdDeviation="2"/>
<feColorMatrix type="matrix" values="0 0 0 0 0 0 0 0 0 0 0 0 0 0 0 0 0 0 0.25 0"/>
<feBlend mode="normal" in2="BackgroundImageFix" result="effect1_dropShadow"/>
<feBlend mode="normal" in="SourceGraphic" in2="effect1_dropShadow" result="shape"/>
</filter>
</defs>
</svg>
