<svg width="86" height="70" viewBox="0 0 86 70" fill="none" xmlns="http://www.w3.org/2000/svg">
<g filter="url(#filter0_d)">
<g clip-path="url(#clip0)">
<path d="M57.2054 11.8787C57.1988 8.91201 55.9111 6.06852 53.6242 3.97051C51.3372 1.87249 48.2373 0.690818 45.0027 0.684082V0.684082C41.7671 0.689471 38.6658 1.87055 36.3776 3.96871C34.0895 6.06687 32.801 8.91113 32.7944 11.8787V28.2385C32.7944 28.2385 57.2026 25.7452 57.2054 11.8813V11.8787Z" fill="#AFB1B8"/>
<path d="M8.21953 28.2385H8.21675C5.8879 28.2385 4 29.9701 4 32.106V32.1086C4 34.2445 5.8879 35.9761 8.21675 35.9761H8.21953C10.5484 35.9761 12.4363 34.2445 12.4363 32.1086V32.106C12.4363 29.9701 10.5484 28.2385 8.21953 28.2385Z" fill="#AFB1B8"/>
<path d="M4 47.3568C4.00587 49.4211 4.90234 51.3993 6.49352 52.8591C8.0847 54.319 10.2412 55.1419 12.4919 55.1479C14.742 55.1419 16.8981 54.3194 18.4892 52.86C20.0803 51.4007 20.9771 49.4232 20.9837 47.3594V35.9761C20.9837 35.9761 4 37.7123 4 47.3568ZM12.4919 49.3964C12.052 49.3964 11.6221 49.2768 11.2564 49.0527C10.8907 48.8286 10.6057 48.51 10.4374 48.1373C10.2691 47.7647 10.2251 47.3546 10.3109 46.9589C10.3967 46.5633 10.6084 46.1999 10.9194 45.9146C11.2304 45.6294 11.6267 45.4352 12.058 45.3565C12.4894 45.2778 12.9365 45.3181 13.3428 45.4725C13.7492 45.6269 14.0965 45.8883 14.3408 46.2237C14.5852 46.5591 14.7156 46.9534 14.7156 47.3568C14.7167 47.6253 14.66 47.8913 14.5487 48.1397C14.4374 48.388 14.2738 48.6138 14.0672 48.804C13.8606 48.9942 13.6151 49.1451 13.3448 49.2481C13.0744 49.351 12.7846 49.404 12.4919 49.404V49.3964Z" fill="#AFB1B8"/>
<path d="M18.3438 59.4048H16.6562V61.1479H15.7773V56.8823H18.5547V57.5942H16.6562V58.6958H18.3438V59.4048ZM22.5684 59.1118C22.5684 59.5317 22.4941 59.8999 22.3457 60.2163C22.1973 60.5327 21.9844 60.7769 21.707 60.9487C21.4316 61.1206 21.1152 61.2065 20.7578 61.2065C20.4043 61.2065 20.0889 61.1216 19.8115 60.9517C19.5342 60.7817 19.3193 60.5396 19.167 60.2251C19.0146 59.9087 18.9375 59.5454 18.9355 59.1353V58.9243C18.9355 58.5044 19.0107 58.1353 19.1611 57.8169C19.3135 57.4966 19.5273 57.2515 19.8027 57.0815C20.0801 56.9097 20.3965 56.8237 20.752 56.8237C21.1074 56.8237 21.4229 56.9097 21.6982 57.0815C21.9756 57.2515 22.1895 57.4966 22.3398 57.8169C22.4922 58.1353 22.5684 58.5034 22.5684 58.9214V59.1118ZM21.6777 58.9185C21.6777 58.4712 21.5977 58.1313 21.4375 57.8989C21.2773 57.6665 21.0488 57.5503 20.752 57.5503C20.457 57.5503 20.2295 57.6655 20.0693 57.896C19.9092 58.1245 19.8281 58.4604 19.8262 58.9038V59.1118C19.8262 59.5474 19.9062 59.8853 20.0664 60.1255C20.2266 60.3657 20.457 60.4858 20.7578 60.4858C21.0527 60.4858 21.2793 60.3706 21.4375 60.1401C21.5957 59.9077 21.6758 59.5698 21.6777 59.1265V58.9185ZM25.4189 60.0288C25.4189 59.8628 25.3604 59.7358 25.2432 59.6479C25.126 59.5581 24.915 59.4644 24.6104 59.3667C24.3057 59.2671 24.0645 59.1694 23.8867 59.0737C23.4023 58.812 23.1602 58.4595 23.1602 58.0161C23.1602 57.7856 23.2246 57.5806 23.3535 57.4009C23.4844 57.2192 23.6709 57.0776 23.9131 56.9761C24.1572 56.8745 24.4307 56.8237 24.7334 56.8237C25.0381 56.8237 25.3096 56.8794 25.5479 56.9907C25.7861 57.1001 25.9707 57.2554 26.1016 57.4565C26.2344 57.6577 26.3008 57.8862 26.3008 58.1421H25.4219C25.4219 57.9468 25.3604 57.7954 25.2373 57.688C25.1143 57.5786 24.9414 57.5239 24.7188 57.5239C24.5039 57.5239 24.3369 57.5698 24.2178 57.6616C24.0986 57.7515 24.0391 57.8706 24.0391 58.019C24.0391 58.1577 24.1084 58.2739 24.2471 58.3677C24.3877 58.4614 24.5938 58.5493 24.8652 58.6313C25.3652 58.7817 25.7295 58.9683 25.958 59.1909C26.1865 59.4136 26.3008 59.6909 26.3008 60.0229C26.3008 60.3921 26.1611 60.6821 25.8818 60.8931C25.6025 61.1021 25.2266 61.2065 24.7539 61.2065C24.4258 61.2065 24.127 61.147 23.8574 61.0278C23.5879 60.9067 23.3818 60.7417 23.2393 60.5327C23.0986 60.3237 23.0283 60.0815 23.0283 59.8062H23.9102C23.9102 60.2769 24.1914 60.5122 24.7539 60.5122C24.9629 60.5122 25.126 60.4702 25.2432 60.3862C25.3604 60.3003 25.4189 60.1812 25.4189 60.0288ZM30.1094 57.5942H28.8027V61.1479H27.9238V57.5942H26.6348V56.8823H30.1094V57.5942ZM33.1797 59.2993H31.4922V60.4419H33.4727V61.1479H30.6133V56.8823H33.4668V57.5942H31.4922V58.6108H33.1797V59.2993ZM35.5674 59.5864H34.8672V61.1479H33.9883V56.8823H35.5732C36.0771 56.8823 36.4658 56.9946 36.7393 57.2192C37.0127 57.4438 37.1494 57.7612 37.1494 58.1714C37.1494 58.4624 37.0859 58.7056 36.959 58.9009C36.834 59.0942 36.6436 59.2485 36.3877 59.3638L37.3105 61.1069V61.1479H36.3672L35.5674 59.5864ZM34.8672 58.8745H35.5762C35.7969 58.8745 35.9678 58.8188 36.0889 58.7075C36.21 58.5942 36.2705 58.439 36.2705 58.2417C36.2705 58.0405 36.2129 57.8823 36.0977 57.7671C35.9844 57.6519 35.8096 57.5942 35.5732 57.5942H34.8672V58.8745ZM40.1934 59.645V61.1479H39.3145V56.8823H40.9785C41.2988 56.8823 41.5801 56.9409 41.8223 57.0581C42.0664 57.1753 42.2539 57.3423 42.3848 57.5591C42.5156 57.7739 42.5811 58.019 42.5811 58.2944C42.5811 58.7124 42.4375 59.0425 42.1504 59.2847C41.8652 59.5249 41.4697 59.645 40.9639 59.645H40.1934ZM40.1934 58.9331H40.9785C41.2109 58.9331 41.3877 58.8784 41.5088 58.769C41.6318 58.6597 41.6934 58.5034 41.6934 58.3003C41.6934 58.0913 41.6318 57.9224 41.5088 57.7935C41.3857 57.6646 41.2158 57.5981 40.999 57.5942H40.1934V58.9331ZM45.7539 59.2993H44.0664V60.4419H46.0469V61.1479H43.1875V56.8823H46.041V57.5942H44.0664V58.6108H45.7539V59.2993ZM49.832 57.5942H48.5254V61.1479H47.6465V57.5942H46.3574V56.8823H49.832V57.5942ZM52.9023 59.2993H51.2148V60.4419H53.1953V61.1479H50.3359V56.8823H53.1895V57.5942H51.2148V58.6108H52.9023V59.2993ZM55.29 59.5864H54.5898V61.1479H53.7109V56.8823H55.2959C55.7998 56.8823 56.1885 56.9946 56.4619 57.2192C56.7354 57.4438 56.8721 57.7612 56.8721 58.1714C56.8721 58.4624 56.8086 58.7056 56.6816 58.9009C56.5566 59.0942 56.3662 59.2485 56.1104 59.3638L57.0332 61.1069V61.1479H56.0898L55.29 59.5864ZM54.5898 58.8745H55.2988C55.5195 58.8745 55.6904 58.8188 55.8115 58.7075C55.9326 58.5942 55.9932 58.439 55.9932 58.2417C55.9932 58.0405 55.9355 57.8823 55.8203 57.7671C55.707 57.6519 55.5322 57.5942 55.2959 57.5942H54.5898V58.8745ZM59.7549 60.0288C59.7549 59.8628 59.6963 59.7358 59.5791 59.6479C59.4619 59.5581 59.251 59.4644 58.9463 59.3667C58.6416 59.2671 58.4004 59.1694 58.2227 59.0737C57.7383 58.812 57.4961 58.4595 57.4961 58.0161C57.4961 57.7856 57.5605 57.5806 57.6895 57.4009C57.8203 57.2192 58.0068 57.0776 58.249 56.9761C58.4932 56.8745 58.7666 56.8237 59.0693 56.8237C59.374 56.8237 59.6455 56.8794 59.8838 56.9907C60.1221 57.1001 60.3066 57.2554 60.4375 57.4565C60.5703 57.6577 60.6367 57.8862 60.6367 58.1421H59.7578C59.7578 57.9468 59.6963 57.7954 59.5732 57.688C59.4502 57.5786 59.2773 57.5239 59.0547 57.5239C58.8398 57.5239 58.6729 57.5698 58.5537 57.6616C58.4346 57.7515 58.375 57.8706 58.375 58.019C58.375 58.1577 58.4443 58.2739 58.583 58.3677C58.7236 58.4614 58.9297 58.5493 59.2012 58.6313C59.7012 58.7817 60.0654 58.9683 60.2939 59.1909C60.5225 59.4136 60.6367 59.6909 60.6367 60.0229C60.6367 60.3921 60.4971 60.6821 60.2178 60.8931C59.9385 61.1021 59.5625 61.2065 59.0898 61.2065C58.7617 61.2065 58.4629 61.147 58.1934 61.0278C57.9238 60.9067 57.7178 60.7417 57.5752 60.5327C57.4346 60.3237 57.3643 60.0815 57.3643 59.8062H58.2461C58.2461 60.2769 58.5273 60.5122 59.0898 60.5122C59.2988 60.5122 59.4619 60.4702 59.5791 60.3862C59.6963 60.3003 59.7549 60.1812 59.7549 60.0288Z" fill="#AFB1B8"/>
</g>
</g>
<defs>
<filter id="filter0_d" x="0" y="0.684082" width="90" height="69.3472" filterUnits="userSpaceOnUse" color-interpolation-filters="sRGB">
<feFlood flood-opacity="0" result="BackgroundImageFix"/>
<feColorMatrix in="SourceAlpha" type="matrix" values="0 0 0 0 0 0 0 0 0 0 0 0 0 0 0 0 0 0 127 0"/>
<feOffset dy="4"/>
<feGaussianBlur stdDeviation="2"/>
<feColorMatrix type="matrix" values="0 0 0 0 0 0 0 0 0 0 0 0 0 0 0 0 0 0 0.25 0"/>
<feBlend mode="normal" in2="BackgroundImageFix" result="effect1_dropShadow"/>
<feBlend mode="normal" in="SourceGraphic" in2="effect1_dropShadow" result="shape"/>
</filter>
<clipPath id="clip0">
<rect x="4" y="0.684082" width="82" height="61.3472" fill="white"/>
</clipPath>
</defs>
</svg>
