<svg width="86" height="49" viewBox="0 0 86 49" fill="none" xmlns="http://www.w3.org/2000/svg">
<g filter="url(#filter0_d)">
<path d="M16.7669 12.4309H16.7641C14.4353 12.4309 12.5474 14.1624 12.5474 16.2984V16.301C12.5474 18.4369 14.4353 20.1685 16.7641 20.1685H16.7669C19.0957 20.1685 20.9836 18.4369 20.9836 16.301V16.2984C20.9836 14.1624 19.0957 12.4309 16.7669 12.4309Z" fill="#AFB1B8"/>
<path d="M47.8909 11.1946C47.8843 8.22793 46.5967 5.38444 44.3097 3.28643C42.0228 1.18841 38.9228 0.00673632 35.6882 0V0C32.4527 0.00538941 29.3513 1.18647 27.0632 3.28463C24.775 5.38279 23.4866 8.22705 23.48 11.1946V11.1946V27.5544C23.48 27.5544 47.8882 25.0611 47.8909 11.1972V11.1946Z" fill="#AFB1B8"/>
<path d="M4 32.924C4.00587 34.9882 4.90234 36.9664 6.49352 38.4263C8.0847 39.8862 10.2412 40.709 12.4919 40.7151V40.7151C14.742 40.709 16.8981 39.8865 18.4892 38.4272C20.0803 36.9679 20.9771 34.9903 20.9837 32.9265V32.9265V21.5432C20.9837 21.5432 4 23.2794 4 32.924ZM12.4919 34.9635C12.052 34.9635 11.6221 34.8439 11.2564 34.6198C10.8907 34.3957 10.6057 34.0772 10.4374 33.7045C10.2691 33.3318 10.2251 32.9217 10.3109 32.5261C10.3967 32.1304 10.6084 31.767 10.9194 31.4818C11.2304 31.1965 11.6267 31.0023 12.058 30.9236C12.4894 30.8449 12.9365 30.8853 13.3428 31.0397C13.7492 31.194 14.0965 31.4554 14.3408 31.7908C14.5852 32.1262 14.7156 32.5206 14.7156 32.924C14.7167 33.1924 14.66 33.4585 14.5487 33.7068C14.4374 33.9552 14.2738 34.1809 14.0672 34.3711C13.8606 34.5613 13.6151 34.7122 13.3448 34.8152C13.0744 34.9182 12.7846 34.9712 12.4919 34.9712V34.9635Z" fill="#AFB1B8"/>
<text fill="#AFB1B8" xml:space="preserve" style="white-space: pre" font-family="Roboto" font-size="6" font-weight="bold" letter-spacing="0em"><tspan x="26.7932" y="35.1245">FOSTER PETERS</tspan></text>
</g>
<defs>
<filter id="filter0_d" x="0" y="0" width="76.0334" height="48.7151" filterUnits="userSpaceOnUse" color-interpolation-filters="sRGB">
<feFlood flood-opacity="0" result="BackgroundImageFix"/>
<feColorMatrix in="SourceAlpha" type="matrix" values="0 0 0 0 0 0 0 0 0 0 0 0 0 0 0 0 0 0 127 0"/>
<feOffset dy="4"/>
<feGaussianBlur stdDeviation="2"/>
<feColorMatrix type="matrix" values="0 0 0 0 0 0 0 0 0 0 0 0 0 0 0 0 0 0 0.25 0"/>
<feBlend mode="normal" in2="BackgroundImageFix" result="effect1_dropShadow"/>
<feBlend mode="normal" in="SourceGraphic" in2="effect1_dropShadow" result="shape"/>
</filter>
</defs>
</svg>
